<svg id="Layer_1" data-name="Layer 1" xmlns="http://www.w3.org/2000/svg" viewBox="0 0 17 20"><defs><style>.cls-1{fill:#db0000;}.cls-2{fill:#efefef;}.cls-3{fill:#fff;}.cls-4{fill:#565553;}</style></defs><title>Artboard 1</title><path class="cls-1" d="M17,8.5a8.48,8.48,0,0,1-2.61,6.13c-1.53,1.47-4.11,3.56-6.09,5.14-1.58-1.19-4.16-3.67-5.69-5.14A8.5,8.5,0,1,1,17,8.5Z"/><circle class="cls-2" cx="8.5" cy="8.5" r="7.71"/><path class="cls-3" d="M10,3.16H7.44l0,1.72s-2.36,0-2.33.05S5,6.66,5,6.66H2.77V9l3.1,4,7.25,0V7.05Z"/><polyline class="cls-3" points="2.77 9.03 2.77 6.66 4.94 6.66 4.94 4.88 7.31 4.88 7.31 3.1 9.88 3.1"/><path class="cls-4" d="M2.77,9.22a.2.2,0,0,1-.2-.2V6.66a.2.2,0,0,1,.2-.2h2V4.88a.2.2,0,0,1,.2-.2H7.12V3.1a.2.2,0,0,1,.2-.2H9.88a.2.2,0,1,1,0,.4H7.51V4.88a.2.2,0,0,1-.2.2H5.14V6.66a.2.2,0,0,1-.2.2H3V9A.2.2,0,0,1,2.77,9.22Z"/><polygon class="cls-3" points="13.05 7.05 13.05 12.98 5.93 12.98 5.93 10.61 8.11 10.61 8.11 8.83 10.48 8.83 10.48 7.05 13.05 7.05"/><path class="cls-4" d="M13,13.18H5.93a.2.2,0,0,1-.2-.2V10.61a.2.2,0,0,1,.2-.2h2V8.83a.2.2,0,0,1,.2-.2h2.17V7.05a.2.2,0,0,1,.2-.2H13a.2.2,0,0,1,.2.2V13A.2.2,0,0,1,13,13.18Zm-6.92-.4h6.72V7.25H10.67V8.83a.2.2,0,0,1-.2.2H8.3v1.58a.2.2,0,0,1-.2.2h-2Z"/><line class="cls-3" x1="13.05" y1="7.05" x2="9.88" y2="3.1"/><rect class="cls-4" x="11.27" y="2.54" width="0.4" height="5.06" transform="translate(-0.66 8.27) rotate(-38.66)"/><line class="cls-3" x1="7.31" y1="3.1" x2="10.48" y2="7.05"/><rect class="cls-4" x="8.7" y="2.54" width="0.4" height="5.06" transform="translate(-1.22 6.67) rotate(-38.66)"/><line class="cls-3" x1="4.94" y1="4.88" x2="8.1" y2="8.83"/><rect class="cls-4" x="6.33" y="4.32" width="0.4" height="5.06" transform="translate(-2.85 5.58) rotate(-38.66)"/><line class="cls-3" x1="7.31" y1="4.88" x2="10.48" y2="8.83"/><rect class="cls-4" x="8.7" y="4.32" width="0.4" height="5.06" transform="translate(-2.33 7.06) rotate(-38.66)"/><line class="cls-3" x1="4.94" y1="6.66" x2="8.1" y2="10.61"/><rect class="cls-4" x="6.33" y="6.1" width="0.4" height="5.06" transform="translate(-3.96 5.97) rotate(-38.66)"/><line class="cls-3" x1="2.8" y1="6.7" x2="5.96" y2="10.65"/><rect class="cls-4" x="4.18" y="6.14" width="0.4" height="5.06" transform="translate(-4.46 4.64) rotate(-38.66)"/><line class="cls-3" x1="2.77" y1="9.03" x2="5.93" y2="12.98"/><rect class="cls-4" x="4.15" y="8.47" width="0.4" height="5.06" transform="translate(-5.92 5.13) rotate(-38.66)"/></svg>